<svg xmlns="http://www.w3.org/2000/svg" viewBox="0 0 900 520"><defs><linearGradient id="g" x1="0" x2="1"><stop stop-color="#4f46e5"/><stop offset="1" stop-color="#06b6d4"/></linearGradient></defs><rect width="900" height="520" rx="30" fill="#f8fafc"/><text x="450" y="55" font-size="30" font-weight="800" text-anchor="middle" fill="#0f172a">Laravel + Inertia + React Architecture</text><g><rect x="60" y="120" width="190" height="110" rx="22" fill="#fff" stroke="#cbd5e1"/><text x="155" y="165" text-anchor="middle" font-size="24" font-weight="800" fill="#1e293b">Browser</text><text x="155" y="198" text-anchor="middle" font-size="17" fill="#475569">React Pages</text></g><g><rect x="355" y="120" width="190" height="110" rx="22" fill="#fff" stroke="#cbd5e1"/><text x="450" y="165" text-anchor="middle" font-size="24" font-weight="800" fill="#1e293b">Inertia</text><text x="450" y="198" text-anchor="middle" font-size="17" fill="#475569">Protocol / Props</text></g><g><rect x="650" y="120" width="190" height="110" rx="22" fill="#fff" stroke="#cbd5e1"/><text x="745" y="165" text-anchor="middle" font-size="24" font-weight="800" fill="#1e293b">Laravel 12</text><text x="745" y="198" text-anchor="middle" font-size="17" fill="#475569">Routes / Controllers</text></g><g><rect x="210" y="330" width="210" height="95" rx="20" fill="#fff" stroke="#cbd5e1"/><text x="315" y="370" text-anchor="middle" font-size="22" font-weight="800" fill="#1e293b">Eloquent</text><text x="315" y="398" text-anchor="middle" font-size="16" fill="#475569">Models & Relations</text></g><g><rect x="480" y="330" width="210" height="95" rx="20" fill="#fff" stroke="#cbd5e1"/><text x="585" y="370" text-anchor="middle" font-size="22" font-weight="800" fill="#1e293b">Database</text><text x="585" y="398" text-anchor="middle" font-size="16" fill="#475569">MySQL / PostgreSQL</text></g><path d="M250 175 H355" stroke="url(#g)" stroke-width="8" stroke-linecap="round"/><path d="M545 175 H650" stroke="url(#g)" stroke-width="8" stroke-linecap="round"/><path d="M745 230 C745 300 660 315 585 330" stroke="url(#g)" stroke-width="8" fill="none" stroke-linecap="round"/><path d="M480 378 H420" stroke="url(#g)" stroke-width="8" stroke-linecap="round"/></svg>