<svg xmlns="http://www.w3.org/2000/svg" width="1300" height="720" viewBox="0 0 1300 720" direction="rtl"><rect width="1300" height="720" rx="36" fill="#f8fafc"/><text x="650" y="70" text-anchor="middle" font-size="38" font-weight="900" fill="#0f172a" font-family="Tajawal, Arial">فكرة مشروع FlowPilot خلال الدورة</text><g font-family="Tajawal, Arial" font-size="22" font-weight="800"><rect x="1000" y="150" width="220" height="140" rx="24" fill="#eef2ff" stroke="#818cf8"/><text x="1110" y="210" text-anchor="middle" fill="#312e81">المستخدم</text><text x="1110" y="248" text-anchor="middle" font-size="17" fill="#475569">يدخل وينشئ مشروعاً</text><rect x="730" y="150" width="220" height="140" rx="24" fill="#ecfeff" stroke="#22d3ee"/><text x="840" y="210" text-anchor="middle" fill="#155e75">المشاريع</text><text x="840" y="248" text-anchor="middle" font-size="17" fill="#475569">تنظيم العمل</text><rect x="460" y="150" width="220" height="140" rx="24" fill="#ecfdf5" stroke="#34d399"/><text x="570" y="210" text-anchor="middle" fill="#047857">المهام</text><text x="570" y="248" text-anchor="middle" font-size="17" fill="#475569">Kanban وحالات</text><rect x="190" y="150" width="220" height="140" rx="24" fill="#fff7ed" stroke="#fb923c"/><text x="300" y="210" text-anchor="middle" fill="#9a3412">التعاون</text><text x="300" y="248" text-anchor="middle" font-size="17" fill="#475569">تعليقات وتنبيهات</text><rect x="410" y="400" width="480" height="160" rx="28" fill="#ffffff" stroke="#cbd5e1"/><text x="650" y="465" text-anchor="middle" fill="#0f172a">لوحة تحكم احترافية</text><text x="650" y="510" text-anchor="middle" font-size="18" fill="#475569">بحث · صلاحيات · سجل نشاط · اختبارات · نشر</text></g><path d="M1000 220 H950" stroke="#64748b" stroke-width="6"/><path d="M730 220 H680" stroke="#64748b" stroke-width="6"/><path d="M460 220 H410" stroke="#64748b" stroke-width="6"/><path d="M650 290 V400" stroke="#64748b" stroke-width="6"/></svg>