<svg xmlns="http://www.w3.org/2000/svg" width="900" height="240" viewBox="0 0 900 240"><defs><marker id="a" markerWidth="10" markerHeight="10" refX="8" refY="3" orient="auto"><path d="M0,0 L0,6 L9,3 z" fill="#0f172a"/></marker></defs><rect width="900" height="240" rx="28" fill="#ffffff"/><text x="450" y="40" text-anchor="middle" font-size="24" font-weight="700" font-family="Tahoma" fill="#111827">Testing لاختبار الميزات المهمة</text><rect x="40" y="80" width="130" height="70" rx="16" fill="#eef2ff" stroke="#6366f1"/><text x="105" y="122" text-anchor="middle" font-size="15" font-family="Tahoma" fill="#111827">الفكرة</text><rect x="210" y="80" width="130" height="70" rx="16" fill="#eef2ff" stroke="#6366f1"/><text x="275" y="122" text-anchor="middle" font-size="15" font-family="Tahoma" fill="#111827">Laravel</text><rect x="380" y="80" width="130" height="70" rx="16" fill="#eef2ff" stroke="#6366f1"/><text x="445" y="122" text-anchor="middle" font-size="15" font-family="Tahoma" fill="#111827">Inertia</text><rect x="550" y="80" width="130" height="70" rx="16" fill="#eef2ff" stroke="#6366f1"/><text x="615" y="122" text-anchor="middle" font-size="15" font-family="Tahoma" fill="#111827">React</text><rect x="720" y="80" width="130" height="70" rx="16" fill="#eef2ff" stroke="#6366f1"/><text x="785" y="122" text-anchor="middle" font-size="15" font-family="Tahoma" fill="#111827">FlowPilot</text><path d="M 170 115 L 205 115" stroke="#0f172a" stroke-width="3" marker-end="url(#a)"/><path d="M 340 115 L 375 115" stroke="#0f172a" stroke-width="3" marker-end="url(#a)"/><path d="M 510 115 L 545 115" stroke="#0f172a" stroke-width="3" marker-end="url(#a)"/><path d="M 680 115 L 715 115" stroke="#0f172a" stroke-width="3" marker-end="url(#a)"/><text x="450" y="205" text-anchor="middle" font-size="15" font-family="Tahoma" fill="#64748b">مخطط مبسط يوضح انتقال الفكرة من الشرح النظري إلى التطبيق العملي داخل FlowPilot</text></svg>